<?xml version="1.0" encoding="UTF-8"?>
<!DOCTYPE svg PUBLIC "-//W3C//DTD SVG 1.1//EN" "http://www.w3.org/Graphics/SVG/1.1/DTD/svg11.dtd">
<svg xmlns="http://www.w3.org/2000/svg" version="1.1" width="512px" height="512px" style="shape-rendering:geometricPrecision; text-rendering:geometricPrecision; image-rendering:optimizeQuality; fill-rule:evenodd; clip-rule:evenodd" xmlns:xlink="http://www.w3.org/1999/xlink">
<g><path style="opacity:0.997" fill="#e5252a" d="M 118.5,-0.5 C 179.5,-0.5 240.5,-0.5 301.5,-0.5C 301.168,49.6694 301.501,99.6694 302.5,149.5C 350.167,149.5 397.833,149.5 445.5,149.5C 446.167,149.5 446.833,149.5 447.5,149.5C 447.985,252.86 447.485,356.193 446,459.5C 438.441,487.561 420.608,504.894 392.5,511.5C 301.167,511.5 209.833,511.5 118.5,511.5C 90.3922,504.894 72.5588,487.561 65,459.5C 63.8451,391.526 63.3451,323.526 63.5,255.5C 63.3451,187.474 63.8451,119.474 65,51.5C 72.5588,23.4392 90.3922,6.1059 118.5,-0.5 Z"/></g>
<g><path style="opacity:1" fill="#eb5558" d="M 301.5,-0.5 C 302.167,-0.5 302.833,-0.5 303.5,-0.5C 305.909,1.90241 307.909,4.56908 309.5,7.5C 307.203,5.70587 305.037,3.70587 303,1.5C 302.5,50.8322 302.333,100.166 302.5,149.5C 301.501,99.6694 301.168,49.6694 301.5,-0.5 Z"/></g>
<g><path style="opacity:1" fill="#ed676a" d="M 309.5,7.5 C 335.502,33.5022 361.169,59.8355 386.5,86.5C 389.101,90.7706 392.434,94.4372 396.5,97.5C 400.833,101.167 404.833,105.167 408.5,109.5C 413.775,116.444 419.775,122.777 426.5,128.5C 428.167,129.5 429.5,130.833 430.5,132.5C 435.106,138.444 440.106,144.11 445.5,149.5C 397.833,149.5 350.167,149.5 302.5,149.5C 302.333,100.166 302.5,50.8322 303,1.5C 305.037,3.70587 307.203,5.70587 309.5,7.5 Z"/></g>
<g><path style="opacity:0.478" fill="#fcd0d0" d="M 386.5,86.5 C 390.566,89.5628 393.899,93.2294 396.5,97.5C 392.434,94.4372 389.101,90.7706 386.5,86.5 Z"/></g>
<g><path style="opacity:0.541" fill="#fcdbdb" d="M 408.5,109.5 C 415.225,115.223 421.225,121.556 426.5,128.5C 419.775,122.777 413.775,116.444 408.5,109.5 Z"/></g>
<g><path style="opacity:0.616" fill="#fcd9d9" d="M 430.5,132.5 C 436.5,137.833 442.167,143.5 447.5,149.5C 446.833,149.5 446.167,149.5 445.5,149.5C 440.106,144.11 435.106,138.444 430.5,132.5 Z"/></g>
<g><path style="opacity:1" fill="#f08082" d="M 182.5,288.5 C 167.833,288.5 153.167,288.5 138.5,288.5C 138.5,319.5 138.5,350.5 138.5,381.5C 137.502,350.338 137.168,319.004 137.5,287.5C 152.676,287.171 167.676,287.504 182.5,288.5 Z"/></g>
<g><path style="opacity:1" fill="#fefdfd" d="M 182.5,288.5 C 200.193,290.36 209.526,300.193 210.5,318C 209.419,336.248 199.752,346.081 181.5,347.5C 174.833,347.5 168.167,347.5 161.5,347.5C 161.5,358.833 161.5,370.167 161.5,381.5C 153.833,381.5 146.167,381.5 138.5,381.5C 138.5,350.5 138.5,319.5 138.5,288.5C 153.167,288.5 167.833,288.5 182.5,288.5 Z"/></g>
<g><path style="opacity:1" fill="#f07d80" d="M 258.5,288.5 C 245.833,288.5 233.167,288.5 220.5,288.5C 220.5,319.5 220.5,350.5 220.5,381.5C 219.502,350.338 219.168,319.004 219.5,287.5C 232.677,287.171 245.677,287.505 258.5,288.5 Z"/></g>
<g><path style="opacity:1" fill="#fefdfd" d="M 258.5,288.5 C 286.227,291.06 300.894,306.227 302.5,334C 302.496,358.323 290.83,373.657 267.5,380C 251.869,381.362 236.202,381.862 220.5,381.5C 220.5,350.5 220.5,319.5 220.5,288.5C 233.167,288.5 245.833,288.5 258.5,288.5 Z"/></g>
<g><path style="opacity:1" fill="#fefdfd" d="M 380.5,308.5 C 366.5,308.5 352.5,308.5 338.5,308.5C 338.5,313.5 338.5,318.5 338.5,323.5C 349.833,323.5 361.167,323.5 372.5,323.5C 372.5,330.167 372.5,336.833 372.5,343.5C 361.167,343.5 349.833,343.5 338.5,343.5C 338.5,356.167 338.5,368.833 338.5,381.5C 330.5,381.5 322.5,381.5 314.5,381.5C 314.5,350.5 314.5,319.5 314.5,288.5C 336.5,288.5 358.5,288.5 380.5,288.5C 380.5,295.167 380.5,301.833 380.5,308.5 Z"/></g>
<g><path style="opacity:1" fill="#ee6f71" d="M 380.5,308.5 C 380.5,301.833 380.5,295.167 380.5,288.5C 358.5,288.5 336.5,288.5 314.5,288.5C 314.5,319.5 314.5,350.5 314.5,381.5C 313.502,350.338 313.168,319.004 313.5,287.5C 336.167,287.5 358.833,287.5 381.5,287.5C 381.825,294.687 381.491,301.687 380.5,308.5 Z"/></g>
<g><path style="opacity:1" fill="#e5272b" d="M 162.5,308.5 C 169.257,308.123 175.924,308.623 182.5,310C 187.732,315.299 187.732,320.632 182.5,326C 175.908,327.329 169.241,327.829 162.5,327.5C 162.5,321.167 162.5,314.833 162.5,308.5 Z"/></g>
<g><path style="opacity:1" fill="#e5282c" d="M 243.5,308.5 C 270.771,306.415 281.938,318.749 277,345.5C 273.244,354.638 266.41,359.805 256.5,361C 252.179,361.499 247.846,361.666 243.5,361.5C 243.5,343.833 243.5,326.167 243.5,308.5 Z"/></g>
<g><path style="opacity:1" fill="#f29394" d="M 181.5,347.5 C 175.355,348.49 169.022,348.823 162.5,348.5C 162.828,359.679 162.495,370.679 161.5,381.5C 161.5,370.167 161.5,358.833 161.5,347.5C 168.167,347.5 174.833,347.5 181.5,347.5 Z"/></g>
</svg>
