<?xml version="1.0" encoding="UTF-8"?>
<!DOCTYPE svg PUBLIC "-//W3C//DTD SVG 1.1//EN" "http://www.w3.org/Graphics/SVG/1.1/DTD/svg11.dtd">
<svg xmlns="http://www.w3.org/2000/svg" version="1.1" width="512px" height="512px" style="shape-rendering:geometricPrecision; text-rendering:geometricPrecision; image-rendering:optimizeQuality; fill-rule:evenodd; clip-rule:evenodd" xmlns:xlink="http://www.w3.org/1999/xlink">
<g><path style="opacity:0.997" fill="#0ac963" d="M 118.5,-0.5 C 179.5,-0.5 240.5,-0.5 301.5,-0.5C 301.5,49.5 301.5,99.5 301.5,149.5C 349.5,149.5 397.5,149.5 445.5,149.5C 446.167,149.5 446.833,149.5 447.5,149.5C 447.667,250.834 447.5,352.167 447,453.5C 441.186,485.144 422.686,504.478 391.5,511.5C 300.5,511.5 209.5,511.5 118.5,511.5C 90.3922,504.894 72.5588,487.561 65,459.5C 63.8434,391.53 63.3434,323.53 63.5,255.5C 63.3434,187.47 63.8434,119.47 65,51.5C 72.5588,23.4392 90.3922,6.1059 118.5,-0.5 Z"/></g>
<g><path style="opacity:1" fill="#54d992" d="M 301.5,-0.5 C 302.167,-0.5 302.833,-0.5 303.5,-0.5C 331.135,29.1363 359.135,58.4696 387.5,87.5C 390.101,91.7706 393.434,95.4372 397.5,98.5C 401.833,102.167 405.833,106.167 409.5,110.5C 415.109,117.778 421.442,124.444 428.5,130.5C 429.5,130.833 430.167,131.5 430.5,132.5C 435.106,138.444 440.106,144.11 445.5,149.5C 397.5,149.5 349.5,149.5 301.5,149.5C 301.5,99.5 301.5,49.5 301.5,-0.5 Z"/></g>
<g><path style="opacity:0.439" fill="#d3f5e2" d="M 387.5,87.5 C 391.566,90.5628 394.899,94.2294 397.5,98.5C 393.434,95.4372 390.101,91.7706 387.5,87.5 Z"/></g>
<g><path style="opacity:0.22" fill="#ebfaf2" d="M 409.5,110.5 C 416.558,116.556 422.891,123.222 428.5,130.5C 421.442,124.444 415.109,117.778 409.5,110.5 Z"/></g>
<g><path style="opacity:0.573" fill="#daf6e6" d="M 430.5,132.5 C 436.5,137.833 442.167,143.5 447.5,149.5C 446.833,149.5 446.167,149.5 445.5,149.5C 440.106,144.11 435.106,138.444 430.5,132.5 Z"/></g>
<g><path style="opacity:1" fill="#fcfefd" d="M 185.5,255.5 C 232.168,255.333 278.835,255.5 325.5,256C 332.097,258.263 336.264,262.763 338,269.5C 338.667,299.5 338.667,329.5 338,359.5C 336.264,366.237 332.097,370.737 325.5,373C 278.833,373.667 232.167,373.667 185.5,373C 178.903,370.737 174.736,366.237 173,359.5C 172.333,329.167 172.333,298.833 173,268.5C 175.353,262.315 179.52,257.982 185.5,255.5 Z"/></g>
<g><path style="opacity:1" fill="#14c965" d="M 221.5,277.5 C 238.65,277.15 246.15,285.483 244,302.5C 239.54,313.648 231.374,317.814 219.5,315C 204.647,306.313 202.647,295.313 213.5,282C 216.099,280.205 218.766,278.705 221.5,277.5 Z"/></g>
<g><path style="opacity:1" fill="#0dc963" d="M 284.5,299.5 C 298.465,312.965 312.299,326.631 326,340.5C 326.667,346.5 326.667,352.5 326,358.5C 325.167,359.333 324.333,360.167 323.5,361C 278.167,361.667 232.833,361.667 187.5,361C 184.651,358.441 183.817,355.274 185,351.5C 192.376,343.789 200.042,336.456 208,329.5C 215.124,335.622 221.957,342.122 228.5,349C 230.833,349.667 233.167,349.667 235.5,349C 252.035,332.632 268.368,316.132 284.5,299.5 Z"/></g>
</svg>
