<?xml version="1.0" encoding="UTF-8"?>
<!DOCTYPE svg PUBLIC "-//W3C//DTD SVG 1.1//EN" "http://www.w3.org/Graphics/SVG/1.1/DTD/svg11.dtd">
<svg xmlns="http://www.w3.org/2000/svg" version="1.1" width="512px" height="512px" style="shape-rendering:geometricPrecision; text-rendering:geometricPrecision; image-rendering:optimizeQuality; fill-rule:evenodd; clip-rule:evenodd" xmlns:xlink="http://www.w3.org/1999/xlink">
<g><path style="opacity:0.997" fill="#e03303" d="M 118.5,-0.5 C 179.5,-0.5 240.5,-0.5 301.5,-0.5C 301.168,49.6694 301.501,99.6694 302.5,149.5C 350.167,149.5 397.833,149.5 445.5,149.5C 446.167,149.5 446.833,149.5 447.5,149.5C 447.985,252.86 447.485,356.193 446,459.5C 438.441,487.561 420.608,504.894 392.5,511.5C 301.167,511.5 209.833,511.5 118.5,511.5C 90.3922,504.894 72.5588,487.561 65,459.5C 63.8451,391.526 63.3451,323.526 63.5,255.5C 63.3451,187.474 63.8451,119.474 65,51.5C 72.5588,23.4392 90.3922,6.1059 118.5,-0.5 Z"/></g>
<g><path style="opacity:1" fill="#e75f3a" d="M 301.5,-0.5 C 302.167,-0.5 302.833,-0.5 303.5,-0.5C 305.909,1.90241 307.909,4.56908 309.5,7.5C 307.203,5.70587 305.037,3.70587 303,1.5C 302.5,50.8322 302.333,100.166 302.5,149.5C 301.501,99.6694 301.168,49.6694 301.5,-0.5 Z"/></g>
<g><path style="opacity:1" fill="#e9714f" d="M 309.5,7.5 C 335.502,33.5022 361.169,59.8355 386.5,86.5C 389.101,90.7706 392.434,94.4372 396.5,97.5C 400.833,101.167 404.833,105.167 408.5,109.5C 413.775,116.444 419.775,122.777 426.5,128.5C 428.167,129.5 429.5,130.833 430.5,132.5C 435.106,138.444 440.106,144.11 445.5,149.5C 397.833,149.5 350.167,149.5 302.5,149.5C 302.333,100.166 302.5,50.8322 303,1.5C 305.037,3.70587 307.203,5.70587 309.5,7.5 Z"/></g>
<g><path style="opacity:0.478" fill="#fbd3c8" d="M 386.5,86.5 C 390.566,89.5628 393.899,93.2294 396.5,97.5C 392.434,94.4372 389.101,90.7706 386.5,86.5 Z"/></g>
<g><path style="opacity:0.541" fill="#fcdfd7" d="M 408.5,109.5 C 415.225,115.223 421.225,121.556 426.5,128.5C 419.775,122.777 413.775,116.444 408.5,109.5 Z"/></g>
<g><path style="opacity:0.616" fill="#fbdad2" d="M 430.5,132.5 C 436.5,137.833 442.167,143.5 447.5,149.5C 446.833,149.5 446.167,149.5 445.5,149.5C 440.106,144.11 435.106,138.444 430.5,132.5 Z"/></g>
<g><path style="opacity:1" fill="#f7ccc0" d="M 305.5,273.5 C 330.995,272.502 356.661,272.169 382.5,272.5C 382.5,279.167 382.5,285.833 382.5,292.5C 382.167,292.5 381.833,292.5 381.5,292.5C 381.5,286.167 381.5,279.833 381.5,273.5C 356.167,273.5 330.833,273.5 305.5,273.5 Z"/></g>
<g><path style="opacity:1" fill="#fefcfc" d="M 144.5,272.5 C 159.837,272.333 175.17,272.5 190.5,273C 206.322,275.988 214.989,285.488 216.5,301.5C 215.656,319.509 206.323,329.675 188.5,332C 181.842,332.5 175.175,332.666 168.5,332.5C 168.5,343.5 168.5,354.5 168.5,365.5C 160.5,365.5 152.5,365.5 144.5,365.5C 144.5,334.5 144.5,303.5 144.5,272.5 Z"/></g>
<g><path style="opacity:1" fill="#fefdfc" d="M 226.5,272.5 C 241.837,272.333 257.17,272.5 272.5,273C 296.143,280.126 303.31,295.293 294,318.5C 288.245,326.465 280.412,330.965 270.5,332C 263.508,332.5 256.508,332.666 249.5,332.5C 249.5,343.5 249.5,354.5 249.5,365.5C 241.833,365.5 234.167,365.5 226.5,365.5C 226.5,334.5 226.5,303.5 226.5,272.5 Z"/></g>
<g><path style="opacity:1" fill="#fefffe" d="M 305.5,273.5 C 330.833,273.5 356.167,273.5 381.5,273.5C 381.5,279.833 381.5,286.167 381.5,292.5C 372.833,292.5 364.167,292.5 355.5,292.5C 355.5,316.833 355.5,341.167 355.5,365.5C 347.833,365.5 340.167,365.5 332.5,365.5C 332.5,341.167 332.5,316.833 332.5,292.5C 323.5,292.5 314.5,292.5 305.5,292.5C 305.5,286.167 305.5,279.833 305.5,273.5 Z"/></g>
<g><path style="opacity:1" fill="#f3ac99" d="M 184.5,293.5 C 179.167,293.5 173.833,293.5 168.5,293.5C 168.5,299.5 168.5,305.5 168.5,311.5C 173.833,311.5 179.167,311.5 184.5,311.5C 179.025,312.489 173.358,312.822 167.5,312.5C 167.5,305.833 167.5,299.167 167.5,292.5C 173.358,292.178 179.025,292.511 184.5,293.5 Z"/></g>
<g><path style="opacity:1" fill="#e03506" d="M 184.5,293.5 C 192.452,295.8 194.619,300.8 191,308.5C 189.266,310.451 187.099,311.451 184.5,311.5C 179.167,311.5 173.833,311.5 168.5,311.5C 168.5,305.5 168.5,299.5 168.5,293.5C 173.833,293.5 179.167,293.5 184.5,293.5 Z"/></g>
<g><path style="opacity:1" fill="#ee9177" d="M 265.5,293.5 C 260.5,293.5 255.5,293.5 250.5,293.5C 250.5,299.5 250.5,305.5 250.5,311.5C 255.5,311.5 260.5,311.5 265.5,311.5C 260.36,312.488 255.026,312.821 249.5,312.5C 249.5,305.833 249.5,299.167 249.5,292.5C 255.026,292.179 260.36,292.512 265.5,293.5 Z"/></g>
<g><path style="opacity:1" fill="#e03506" d="M 265.5,293.5 C 273.513,295.192 276.013,299.858 273,307.5C 271.117,310.024 268.617,311.358 265.5,311.5C 260.5,311.5 255.5,311.5 250.5,311.5C 250.5,305.5 250.5,299.5 250.5,293.5C 255.5,293.5 260.5,293.5 265.5,293.5 Z"/></g>
<g><path style="opacity:1" fill="#f0a18a" d="M 305.5,292.5 C 314.5,292.5 323.5,292.5 332.5,292.5C 332.5,316.833 332.5,341.167 332.5,365.5C 331.502,341.672 331.169,317.672 331.5,293.5C 322.651,293.826 313.984,293.493 305.5,292.5 Z"/></g>
<g><path style="opacity:1" fill="#e96e4b" d="M 381.5,292.5 C 381.833,292.5 382.167,292.5 382.5,292.5C 374.016,293.493 365.349,293.826 356.5,293.5C 356.831,317.672 356.498,341.672 355.5,365.5C 355.5,341.167 355.5,316.833 355.5,292.5C 364.167,292.5 372.833,292.5 381.5,292.5 Z"/></g>
</svg>
