<?xml version="1.0" encoding="UTF-8"?>
<!DOCTYPE svg PUBLIC "-//W3C//DTD SVG 1.1//EN" "http://www.w3.org/Graphics/SVG/1.1/DTD/svg11.dtd">
<svg xmlns="http://www.w3.org/2000/svg" version="1.1" width="512px" height="512px" style="shape-rendering:geometricPrecision; text-rendering:geometricPrecision; image-rendering:optimizeQuality; fill-rule:evenodd; clip-rule:evenodd" xmlns:xlink="http://www.w3.org/1999/xlink">
<g><path style="opacity:0.997" fill="#7542ed" d="M 118.5,-0.5 C 179.5,-0.5 240.5,-0.5 301.5,-0.5C 301.5,49.5 301.5,99.5 301.5,149.5C 349.5,149.5 397.5,149.5 445.5,149.5C 446.167,149.5 446.833,149.5 447.5,149.5C 447.667,250.834 447.5,352.167 447,453.5C 441.186,485.144 422.686,504.478 391.5,511.5C 300.5,511.5 209.5,511.5 118.5,511.5C 90.3922,504.894 72.5588,487.561 65,459.5C 63.8434,391.53 63.3434,323.53 63.5,255.5C 63.3434,187.47 63.8434,119.47 65,51.5C 72.5588,23.4392 90.3922,6.1059 118.5,-0.5 Z"/></g>
<g><path style="opacity:1" fill="#9f7bf2" d="M 301.5,-0.5 C 302.167,-0.5 302.833,-0.5 303.5,-0.5C 330.468,28.4695 357.802,57.1362 385.5,85.5C 388.77,90.4397 392.77,94.7731 397.5,98.5C 401.167,101.5 404.5,104.833 407.5,108.5C 413.776,116.445 420.776,123.778 428.5,130.5C 429.5,130.833 430.167,131.5 430.5,132.5C 435.106,138.444 440.106,144.11 445.5,149.5C 397.5,149.5 349.5,149.5 301.5,149.5C 301.5,99.5 301.5,49.5 301.5,-0.5 Z"/></g>
<g><path style="opacity:0.51" fill="#e4d9fb" d="M 385.5,85.5 C 390.23,89.2269 394.23,93.5603 397.5,98.5C 392.77,94.7731 388.77,90.4397 385.5,85.5 Z"/></g>
<g><path style="opacity:0.099" fill="#f3effd" d="M 407.5,108.5 C 415.224,115.222 422.224,122.555 428.5,130.5C 420.776,123.778 413.776,116.445 407.5,108.5 Z"/></g>
<g><path style="opacity:0.573" fill="#eae1fc" d="M 430.5,132.5 C 436.5,137.833 442.167,143.5 447.5,149.5C 446.833,149.5 446.167,149.5 445.5,149.5C 440.106,144.11 435.106,138.444 430.5,132.5 Z"/></g>
<g><path style="opacity:1" fill="#fdfcfe" d="M 246.5,249.5 C 269.703,247.17 285.203,256.836 293,278.5C 296.237,300.704 287.57,316.038 267,324.5C 266.667,331.5 266.333,338.5 266,345.5C 262.776,353.346 257.276,355.513 249.5,352C 247.19,350.363 245.69,348.196 245,345.5C 244.333,334.5 244.333,323.5 245,312.5C 245.792,310.413 246.959,308.579 248.5,307C 252.988,305.118 257.655,303.785 262.5,303C 274.398,294.394 275.398,284.727 265.5,274C 248.663,267.833 239.497,273.667 238,291.5C 234.96,297.603 230.126,299.769 223.5,298C 221,296.833 219.167,295 218,292.5C 216.532,270.816 226.032,256.483 246.5,249.5 Z"/></g>
<g><path style="opacity:1" fill="#fefdfe" d="M 175.5,263.5 C 187.683,262.506 192.516,267.839 190,279.5C 177.986,291.347 166.152,303.347 154.5,315.5C 166.152,327.653 177.986,339.653 190,351.5C 192.581,358.181 190.748,363.348 184.5,367C 181.036,367.817 177.702,367.483 174.5,366C 159.667,351.167 144.833,336.333 130,321.5C 128.496,317.961 128.163,314.295 129,310.5C 144.702,294.965 160.202,279.299 175.5,263.5 Z"/></g>
<g><path style="opacity:1" fill="#fdfdfe" d="M 325.5,263.5 C 329.308,263.163 332.974,263.663 336.5,265C 351.333,279.833 366.167,294.667 381,309.5C 383,313.5 383,317.5 381,321.5C 366.167,336.333 351.333,351.167 336.5,366C 324.713,369.215 319.213,364.715 320,352.5C 331.846,339.988 343.679,327.488 355.5,315C 344.376,302.875 332.876,291.041 321,279.5C 318.153,272.89 319.653,267.557 325.5,263.5 Z"/></g>
<g><path style="opacity:1" fill="#faf8fe" d="M 252.5,359.5 C 264.696,360.233 268.529,366.233 264,377.5C 255.97,383.832 249.637,382.499 245,373.5C 244.11,366.943 246.61,362.276 252.5,359.5 Z"/></g>
</svg>
