<?xml version="1.0" encoding="UTF-8"?>
<!DOCTYPE svg PUBLIC "-//W3C//DTD SVG 1.1//EN" "http://www.w3.org/Graphics/SVG/1.1/DTD/svg11.dtd">
<svg xmlns="http://www.w3.org/2000/svg" version="1.1" width="512px" height="512px" style="shape-rendering:geometricPrecision; text-rendering:geometricPrecision; image-rendering:optimizeQuality; fill-rule:evenodd; clip-rule:evenodd" xmlns:xlink="http://www.w3.org/1999/xlink">
<g><path style="opacity:0.997" fill="#251d36" d="M 118.5,-0.5 C 179.5,-0.5 240.5,-0.5 301.5,-0.5C 301.5,49.5 301.5,99.5 301.5,149.5C 349.5,149.5 397.5,149.5 445.5,149.5C 446.167,149.5 446.833,149.5 447.5,149.5C 447.985,252.86 447.485,356.193 446,459.5C 438.441,487.561 420.608,504.894 392.5,511.5C 301.167,511.5 209.833,511.5 118.5,511.5C 90.3922,504.894 72.5588,487.561 65,459.5C 63.8434,391.53 63.3434,323.53 63.5,255.5C 63.3434,187.47 63.8434,119.47 65,51.5C 72.5364,23.4623 90.3697,6.12897 118.5,-0.5 Z"/></g>
<g><path style="opacity:1" fill="#676173" d="M 301.5,-0.5 C 302.167,-0.5 302.833,-0.5 303.5,-0.5C 330.802,28.8029 358.468,57.8029 386.5,86.5C 389.436,91.1053 393.102,95.1053 397.5,98.5C 401.167,101.5 404.5,104.833 407.5,108.5C 413.776,116.445 420.776,123.778 428.5,130.5C 429.5,130.833 430.167,131.5 430.5,132.5C 435.106,138.444 440.106,144.11 445.5,149.5C 397.5,149.5 349.5,149.5 301.5,149.5C 301.5,99.5 301.5,49.5 301.5,-0.5 Z"/></g>
<g><path style="opacity:0.475" fill="#d4d3d8" d="M 386.5,86.5 C 390.898,89.8947 394.564,93.8947 397.5,98.5C 393.102,95.1053 389.436,91.1053 386.5,86.5 Z"/></g>
<g><path style="opacity:0.096" fill="#eae9eb" d="M 407.5,108.5 C 415.224,115.222 422.224,122.555 428.5,130.5C 420.776,123.778 413.776,116.445 407.5,108.5 Z"/></g>
<g><path style="opacity:0.588" fill="#dad8dc" d="M 430.5,132.5 C 436.5,137.833 442.167,143.5 447.5,149.5C 446.833,149.5 446.167,149.5 445.5,149.5C 440.106,144.11 435.106,138.444 430.5,132.5 Z"/></g>
<g><path style="opacity:1" fill="#fdfdfd" d="M 183.5,243.5 C 208.169,243.333 232.836,243.5 257.5,244C 265.324,247.161 267.491,252.661 264,260.5C 262.457,262.378 260.624,263.878 258.5,265C 233.5,265.667 208.5,265.667 183.5,265C 174.221,257.836 174.221,250.67 183.5,243.5 Z"/></g>
<g><path style="opacity:1" fill="#fefefe" d="M 183.5,288.5 C 231.168,288.333 278.834,288.5 326.5,289C 334.518,292.872 336.351,298.706 332,306.5C 330.786,308.049 329.286,309.215 327.5,310C 279.5,310.667 231.5,310.667 183.5,310C 174.221,302.836 174.221,295.67 183.5,288.5 Z"/></g>
<g><path style="opacity:1" fill="#fefefe" d="M 183.5,333.5 C 231.168,333.333 278.834,333.5 326.5,334C 334.518,337.872 336.351,343.706 332,351.5C 330.786,353.049 329.286,354.215 327.5,355C 279.5,355.667 231.5,355.667 183.5,355C 174.221,347.836 174.221,340.67 183.5,333.5 Z"/></g>
<g><path style="opacity:1" fill="#fefefe" d="M 183.5,378.5 C 231.168,378.333 278.834,378.5 326.5,379C 334.518,382.872 336.351,388.706 332,396.5C 330.786,398.049 329.286,399.215 327.5,400C 279.5,400.667 231.5,400.667 183.5,400C 174.221,392.836 174.221,385.67 183.5,378.5 Z"/></g>
</svg>
