<?xml version="1.0" encoding="UTF-8"?>
<!DOCTYPE svg PUBLIC "-//W3C//DTD SVG 1.1//EN" "http://www.w3.org/Graphics/SVG/1.1/DTD/svg11.dtd">
<svg xmlns="http://www.w3.org/2000/svg" version="1.1" width="512px" height="512px" style="shape-rendering:geometricPrecision; text-rendering:geometricPrecision; image-rendering:optimizeQuality; fill-rule:evenodd; clip-rule:evenodd" xmlns:xlink="http://www.w3.org/1999/xlink">
<g><path style="opacity:0.997" fill="#251d36" d="M 118.5,-0.5 C 179.5,-0.5 240.5,-0.5 301.5,-0.5C 301.168,49.6694 301.501,99.6694 302.5,149.5C 350.167,149.5 397.833,149.5 445.5,149.5C 446.167,149.5 446.833,149.5 447.5,149.5C 447.985,252.86 447.485,356.193 446,459.5C 438.441,487.561 420.608,504.894 392.5,511.5C 301.167,511.5 209.833,511.5 118.5,511.5C 90.3922,504.894 72.5588,487.561 65,459.5C 63.8451,391.526 63.3451,323.526 63.5,255.5C 63.3451,187.474 63.8451,119.474 65,51.5C 72.5588,23.4392 90.3922,6.1059 118.5,-0.5 Z"/></g>
<g><path style="opacity:1" fill="#564e62" d="M 301.5,-0.5 C 302.167,-0.5 302.833,-0.5 303.5,-0.5C 305.167,1.5 306.833,3.5 308.5,5.5C 306.284,4.79739 304.451,3.46406 303,1.5C 302.5,50.8322 302.333,100.166 302.5,149.5C 301.501,99.6694 301.168,49.6694 301.5,-0.5 Z"/></g>
<g><path style="opacity:1" fill="#676173" d="M 308.5,5.5 C 334.139,32.1401 359.806,58.8068 385.5,85.5C 388.436,90.1053 392.102,94.1053 396.5,97.5C 400.833,101.167 404.833,105.167 408.5,109.5C 413.775,116.444 419.775,122.777 426.5,128.5C 428.167,129.5 429.5,130.833 430.5,132.5C 435.106,138.444 440.106,144.11 445.5,149.5C 397.833,149.5 350.167,149.5 302.5,149.5C 302.333,100.166 302.5,50.8322 303,1.5C 304.451,3.46406 306.284,4.79739 308.5,5.5 Z"/></g>
<g><path style="opacity:0.514" fill="#ceccd3" d="M 385.5,85.5 C 389.898,88.8947 393.564,92.8947 396.5,97.5C 392.102,94.1053 388.436,90.1053 385.5,85.5 Z"/></g>
<g><path style="opacity:0.541" fill="#dbd9de" d="M 408.5,109.5 C 415.225,115.223 421.225,121.556 426.5,128.5C 419.775,122.777 413.775,116.444 408.5,109.5 Z"/></g>
<g><path style="opacity:0.616" fill="#d8d7db" d="M 430.5,132.5 C 436.5,137.833 442.167,143.5 447.5,149.5C 446.833,149.5 446.167,149.5 445.5,149.5C 440.106,144.11 435.106,138.444 430.5,132.5 Z"/></g>
<g><path style="opacity:1" fill="#fefefe" d="M 184.5,372.5 C 176.833,372.5 169.167,372.5 161.5,372.5C 161.831,348.328 161.498,324.328 160.5,300.5C 151.833,300.5 143.167,300.5 134.5,300.5C 134.5,293.833 134.5,287.167 134.5,280.5C 160.167,280.5 185.833,280.5 211.5,280.5C 211.5,287.167 211.5,293.833 211.5,300.5C 202.5,300.5 193.5,300.5 184.5,300.5C 184.5,324.5 184.5,348.5 184.5,372.5 Z"/></g>
<g><path style="opacity:1" fill="#fcfcfc" d="M 217.5,281.5 C 225.656,280.343 233.99,280.177 242.5,281C 246.67,287.99 251.003,294.823 255.5,301.5C 259.997,294.823 264.33,287.99 268.5,281C 276.833,280.333 285.167,280.333 293.5,281C 285.151,295.343 276.817,309.677 268.5,324C 278.151,340.323 287.817,356.657 297.5,373C 289.167,373.667 280.833,373.667 272.5,373C 267.209,363.582 261.543,354.415 255.5,345.5C 249.959,354.75 244.292,363.917 238.5,373C 230.167,373.667 221.833,373.667 213.5,373C 223.183,356.657 232.849,340.323 242.5,324C 234.777,309.375 226.444,295.208 217.5,281.5 Z"/></g>
<g><path style="opacity:1" fill="#fefefe" d="M 350.5,300.5 C 349.502,324.328 349.169,348.328 349.5,372.5C 341.833,372.5 334.167,372.5 326.5,372.5C 326.5,348.5 326.5,324.5 326.5,300.5C 317.5,300.5 308.5,300.5 299.5,300.5C 299.5,293.833 299.5,287.167 299.5,280.5C 325.167,280.5 350.833,280.5 376.5,280.5C 376.5,287.167 376.5,293.833 376.5,300.5C 367.833,300.5 359.167,300.5 350.5,300.5 Z"/></g>
<g><path style="opacity:1" fill="#c8c6cc" d="M 160.5,300.5 C 161.498,324.328 161.831,348.328 161.5,372.5C 169.167,372.5 176.833,372.5 184.5,372.5C 176.684,373.492 168.684,373.826 160.5,373.5C 160.5,349.167 160.5,324.833 160.5,300.5 Z"/></g>
<g><path style="opacity:1" fill="#c8c6cc" d="M 350.5,300.5 C 350.5,324.833 350.5,349.167 350.5,373.5C 342.316,373.826 334.316,373.492 326.5,372.5C 334.167,372.5 341.833,372.5 349.5,372.5C 349.169,348.328 349.502,324.328 350.5,300.5 Z"/></g>
</svg>
