<?xml version="1.0" encoding="UTF-8"?>
<!DOCTYPE svg PUBLIC "-//W3C//DTD SVG 1.1//EN" "http://www.w3.org/Graphics/SVG/1.1/DTD/svg11.dtd">
<svg xmlns="http://www.w3.org/2000/svg" version="1.1" width="512px" height="512px" style="shape-rendering:geometricPrecision; text-rendering:geometricPrecision; image-rendering:optimizeQuality; fill-rule:evenodd; clip-rule:evenodd" xmlns:xlink="http://www.w3.org/1999/xlink">
<g><path style="opacity:0.999" fill="#ffb11f" d="M 118.5,-0.5 C 179.5,-0.5 240.5,-0.5 301.5,-0.5C 301.5,49.5 301.5,99.5 301.5,149.5C 349.5,149.5 397.5,149.5 445.5,149.5C 446.167,149.5 446.833,149.5 447.5,149.5C 447.985,252.86 447.485,356.193 446,459.5C 438.441,487.561 420.608,504.894 392.5,511.5C 301.167,511.5 209.833,511.5 118.5,511.5C 90.3922,504.894 72.5588,487.561 65,459.5C 63.8434,391.53 63.3434,323.53 63.5,255.5C 63.3434,187.47 63.8434,119.47 65,51.5C 72.5364,23.4623 90.3697,6.12897 118.5,-0.5 Z"/></g>
<g><path style="opacity:1" fill="#ffc963" d="M 301.5,-0.5 C 302.167,-0.5 302.833,-0.5 303.5,-0.5C 330.468,28.4695 357.802,57.1362 385.5,85.5C 388.77,90.4397 392.77,94.7731 397.5,98.5C 401.167,101.5 404.5,104.833 407.5,108.5C 413.776,116.445 420.776,123.778 428.5,130.5C 430.167,131.5 431.5,132.833 432.5,134.5C 436.437,139.776 440.771,144.776 445.5,149.5C 397.5,149.5 349.5,149.5 301.5,149.5C 301.5,99.5 301.5,49.5 301.5,-0.5 Z"/></g>
<g><path style="opacity:1" fill="#fffefd" d="M 147.5,36.5 C 164.167,36.5 180.833,36.5 197.5,36.5C 197.5,45.1667 197.5,53.8333 197.5,62.5C 206.833,62.5 216.167,62.5 225.5,62.5C 227.752,62.9156 229.252,64.249 230,66.5C 230.928,73.9402 230.594,81.2735 229,88.5C 228.25,89.1258 227.416,89.6258 226.5,90C 217.173,90.4998 207.839,90.6665 198.5,90.5C 198.5,100.167 198.5,109.833 198.5,119.5C 207.839,119.334 217.173,119.5 226.5,120C 228.333,120.5 229.5,121.667 230,123.5C 230.667,130.167 230.667,136.833 230,143.5C 229.5,145.333 228.333,146.5 226.5,147C 217.173,147.5 207.839,147.666 198.5,147.5C 198.5,157.167 198.5,166.833 198.5,176.5C 207.839,176.334 217.173,176.5 226.5,177C 228.333,177.5 229.5,178.667 230,180.5C 230.667,187.167 230.667,193.833 230,200.5C 229.626,201.416 229.126,202.25 228.5,203C 220.766,204.136 212.932,204.636 205,204.5C 197.833,204.333 190.667,204.167 183.5,204C 182.584,203.626 181.75,203.126 181,202.5C 179.559,193.942 179.059,185.276 179.5,176.5C 170.161,176.666 160.827,176.5 151.5,176C 149.667,175.5 148.5,174.333 148,172.5C 147.333,165.167 147.333,157.833 148,150.5C 148.903,149.299 150.069,148.465 151.5,148C 160.827,147.5 170.161,147.334 179.5,147.5C 179.5,138.167 179.5,128.833 179.5,119.5C 170.161,119.666 160.827,119.5 151.5,119C 149.667,118.5 148.5,117.333 148,115.5C 147.333,108.167 147.333,100.833 148,93.5C 148.903,92.2986 150.069,91.4652 151.5,91C 160.827,90.5002 170.161,90.3335 179.5,90.5C 179.5,81.1667 179.5,71.8333 179.5,62.5C 170.161,62.6665 160.827,62.4998 151.5,62C 150,61.1667 148.833,60 148,58.5C 147.5,51.1742 147.334,43.8409 147.5,36.5 Z"/></g>
<g><path style="opacity:1" fill="#ffd78e" d="M 147.5,36.5 C 164.325,35.5034 181.325,35.1701 198.5,35.5C 198.5,44.1667 198.5,52.8333 198.5,61.5C 207.682,61.1734 216.682,61.5067 225.5,62.5C 216.167,62.5 206.833,62.5 197.5,62.5C 197.5,53.8333 197.5,45.1667 197.5,36.5C 180.833,36.5 164.167,36.5 147.5,36.5 Z"/></g>
<g><path style="opacity:0.51" fill="#ffefd3" d="M 385.5,85.5 C 390.23,89.2269 394.23,93.5603 397.5,98.5C 392.77,94.7731 388.77,90.4397 385.5,85.5 Z"/></g>
<g><path style="opacity:0.096" fill="#fff7e9" d="M 407.5,108.5 C 415.224,115.222 422.224,122.555 428.5,130.5C 420.776,123.778 413.776,116.445 407.5,108.5 Z"/></g>
<g><path style="opacity:0.541" fill="#fff3dd" d="M 432.5,134.5 C 437.833,139.167 442.833,144.167 447.5,149.5C 446.833,149.5 446.167,149.5 445.5,149.5C 440.771,144.776 436.437,139.776 432.5,134.5 Z"/></g>
<g><path style="opacity:1" fill="#fffdfb" d="M 177.5,223.5 C 185.174,223.334 192.841,223.5 200.5,224C 202.667,224.833 204.167,226.333 205,228.5C 205.333,241.5 205.667,254.5 206,267.5C 209.333,277.5 212.667,287.5 216,297.5C 218.366,322.8 206.866,334.634 181.5,333C 166.143,327.13 159.31,315.964 161,299.5C 164.469,288.759 168.136,278.092 172,267.5C 172.333,254.5 172.667,241.5 173,228.5C 174.025,226.313 175.525,224.646 177.5,223.5 Z"/></g>
<g><path style="opacity:1" fill="#ffb122" d="M 178.5,290.5 C 185.532,290.17 192.532,290.503 199.5,291.5C 203.247,297.87 204.081,304.537 202,311.5C 197.745,318.54 191.578,321.04 183.5,319C 177.24,316.489 174.24,311.822 174.5,305C 175.128,299.952 176.462,295.119 178.5,290.5 Z"/></g>
</svg>
